<svg width="71" height="61" viewBox="0 0 71 61" fill="none" xmlns="http://www.w3.org/2000/svg">
<path d="M35.4991 42.7223C39.33 42.7223 43.004 41.4346 45.7129 39.1425C48.4218 36.8504 49.9436 33.7416 49.9436 30.5001C49.9436 27.2585 48.4218 24.1497 45.7129 21.8576C43.004 19.5655 39.33 18.2778 35.4991 18.2778C31.6682 18.2778 27.9942 19.5655 25.2854 21.8576C22.5765 24.1497 21.0547 27.2585 21.0547 30.5001C21.0547 33.7416 22.5765 36.8504 25.2854 39.1425C27.9942 41.4346 31.6682 42.7223 35.4991 42.7223Z" stroke="white" stroke-width="5" stroke-linecap="round" stroke-linejoin="round"/>
<path d="M3 42.7222V18.2778C3 14.2259 4.90228 10.3399 8.28835 7.47476C11.6744 4.60962 16.2669 3 21.0556 3H49.9444C54.7331 3 59.3256 4.60962 62.7117 7.47476C66.0977 10.3399 68 14.2259 68 18.2778V42.7222C68 46.7741 66.0977 50.6601 62.7117 53.5252C59.3256 56.3904 54.7331 58 49.9444 58H21.0556C16.2669 58 11.6744 56.3904 8.28835 53.5252C4.90228 50.6601 3 46.7741 3 42.7222Z" stroke="white" stroke-width="5"/>
<path d="M55.3613 13.7263L55.3974 13.6914" stroke="white" stroke-width="5" stroke-linecap="round" stroke-linejoin="round"/>
</svg>
