<svg width="151" height="132" viewBox="0 0 151 132" fill="none" xmlns="http://www.w3.org/2000/svg">
<path d="M29.0631 45.9847V56.4365H18.0827C15.9069 56.4365 14.1582 54.6674 14.1582 52.4916V43.1176C14.1582 40.9418 15.9069 39.1728 18.0827 39.1728H28.9005L28.6158 42.8126H18.6927C18.2047 42.8126 17.798 43.2193 17.798 43.7276V51.8816C17.798 52.39 18.2047 52.7966 18.6927 52.7966H25.4233V49.6245H20.8278L21.1328 45.9847H29.0631ZM35.0415 39.1931H42.2195C44.3952 39.1931 46.1643 40.9622 46.1643 43.1379V56.4365H42.5245V50.8039H34.7365V56.4365H31.0967V43.1379C31.0967 40.9622 32.8454 39.1931 35.0415 39.1931ZM34.7365 47.1641H42.5245V43.7276C42.5245 43.2396 42.1178 42.8329 41.6094 42.8329H35.6312C35.1432 42.8329 34.7365 43.2396 34.7365 43.7276V47.1641ZM62.9973 39.1931H68.3452V56.4365H64.7054V42.8329H63.0583C61.4112 42.8329 60.0895 44.1546 60.0895 45.7814V56.4365H56.4497V45.7814C56.4497 44.1546 55.128 42.8329 53.4809 42.8329H51.8339V56.4365H48.194V39.1931H53.5419C55.2703 39.1931 57.2021 40.1285 58.2798 41.4502C59.3778 40.0268 61.2689 39.1931 62.9973 39.1931ZM74.0147 49.6245V52.7966H83.7548L83.4498 56.4365H70.3749V39.1728H83.7548L83.4498 42.8126H74.0147V45.9847H83.7548L83.4498 49.6245H74.0147Z" fill="#F2F2F2"/>
<g filter="url(#filter0_i_866_4370)">
<path d="M1.37598 104.348H70.917H104.933L140.84 113.1L125.06 104.235V101.059V97.6835L125.248 93.7127V88.5505V79.4175L125.06 59.166V38.9146L125.248 0H151V60.6959V91.1316V106.3V113.964V121.469V131.833H1.37598V118.455V104.348Z" fill="#038C8C"/>
</g>
<g filter="url(#filter1_bd_866_4370)">
<path d="M1 103.839H125.06V0.19873H136.558H148.368V7.53036V11.0971V12.8805V14.862V22.1936V25.7604V27.5437V29.3271V32.8938V34.8754V36.6587V40.2255V42.0089V43.9904V51.5202V55.285V57.0684V58.8518V92.1414V125.678H124.778H1V119.883V114.015V103.839Z" fill="#04D9D9"/>
</g>
<path d="M17.798 82.9144H27.5381L27.2331 86.5542H17.798V93.3661H14.1582V76.1025H27.5381L27.2331 79.7423H17.798V82.9144ZM29.5677 76.1025H33.2075V88.8113C33.2075 89.2993 33.6142 89.706 34.1225 89.706H40.1007C40.5888 89.706 40.9954 89.2993 40.9954 88.8113V76.1025H44.6353V89.4213C44.6353 91.5971 42.8865 93.3661 40.6904 93.3661H33.5125C31.3367 93.3661 29.5677 91.5971 29.5677 89.4213V76.1025ZM61.7529 76.1025L61.4479 79.7423H56.0391V93.3661H52.3992V79.7423H46.665L46.97 76.1025H61.7529ZM63.3851 76.1025H67.0249V88.8113C67.0249 89.2993 67.4316 89.706 67.9399 89.706H73.9182C74.4062 89.706 74.8129 89.2993 74.8129 88.8113V76.1025H78.4527V89.4213C78.4527 91.5971 76.7039 93.3661 74.5078 93.3661H67.3299C65.1541 93.3661 63.3851 91.5971 63.3851 89.4213V76.1025ZM95.55 80.0473V82.6094C95.55 84.7851 93.8013 86.5542 91.6052 86.5542H90.6292C91.3205 86.7372 91.7069 87.7336 91.9102 88.1606L92.0119 88.4046C92.3982 89.218 93.2116 89.7263 94.1266 89.7263H95.55L95.245 93.3661H93.2929C91.4832 93.3661 89.8361 92.3291 89.0634 90.682L88.1077 88.6283C87.579 87.5099 87.396 86.5949 84.1222 86.5949V93.3661H80.4824V76.1025H91.6052C93.8013 76.1025 95.55 77.8715 95.55 80.0473ZM84.1222 82.9144H91.0155C91.5035 82.9144 91.9102 82.5077 91.9102 81.9994V80.6573C91.9102 80.149 91.5035 79.7423 91.0155 79.7423H84.1222V82.9144ZM101.22 86.5542V89.7263H110.96L110.655 93.3661H97.5798V76.1025H110.96L110.655 79.7423H101.22V82.9144H110.96L110.655 86.5542H101.22Z" fill="#F2F2F2"/>
<path d="M86.3389 57.1812V38.518H88.9704V47.8496V57.1812H86.3389Z" fill="#04D9D9"/>
<path d="M106.64 57.1812V38.518H109.271V47.8496V57.1812H106.64Z" fill="#04D9D9"/>
<path d="M88.9707 57.1812H106.64V59.9608H97.8053H88.9707V57.1812Z" fill="#04D9D9"/>
<path d="M98.3689 40.9004V45.9687V48.8421H104.008V51.6218H95.7373V51.037V45.9687V40.9004L98.3689 40.9004Z" fill="#04D9D9"/>
<path d="M88.9707 35.7383H106.64V38.5179H97.8053H88.9707V35.7383Z" fill="#04D9D9"/>
<defs>
<filter id="filter0_i_866_4370" x="1.37598" y="0" width="149.624" height="132.79" filterUnits="userSpaceOnUse" color-interpolation-filters="sRGB">
<feFlood flood-opacity="0" result="BackgroundImageFix"/>
<feBlend mode="normal" in="SourceGraphic" in2="BackgroundImageFix" result="shape"/>
<feColorMatrix in="SourceAlpha" type="matrix" values="0 0 0 0 0 0 0 0 0 0 0 0 0 0 0 0 0 0 127 0" result="hardAlpha"/>
<feOffset dy="0.9569"/>
<feGaussianBlur stdDeviation="0.47845"/>
<feComposite in2="hardAlpha" operator="arithmetic" k2="-1" k3="1"/>
<feColorMatrix type="matrix" values="0 0 0 0 0 0 0 0 0 0 0 0 0 0 0 0 0 0 0.25 0"/>
<feBlend mode="normal" in2="shape" result="effect1_innerShadow_866_4370"/>
</filter>
<filter id="filter1_bd_866_4370" x="0.0430996" y="-0.75817" width="149.282" height="128.35" filterUnits="userSpaceOnUse" color-interpolation-filters="sRGB">
<feFlood flood-opacity="0" result="BackgroundImageFix"/>
<feGaussianBlur in="BackgroundImageFix" stdDeviation="0.47845"/>
<feComposite in2="SourceAlpha" operator="in" result="effect1_backgroundBlur_866_4370"/>
<feColorMatrix in="SourceAlpha" type="matrix" values="0 0 0 0 0 0 0 0 0 0 0 0 0 0 0 0 0 0 127 0" result="hardAlpha"/>
<feOffset dy="0.9569"/>
<feGaussianBlur stdDeviation="0.47845"/>
<feComposite in2="hardAlpha" operator="out"/>
<feColorMatrix type="matrix" values="0 0 0 0 0 0 0 0 0 0 0 0 0 0 0 0 0 0 0.25 0"/>
<feBlend mode="normal" in2="effect1_backgroundBlur_866_4370" result="effect2_dropShadow_866_4370"/>
<feBlend mode="normal" in="SourceGraphic" in2="effect2_dropShadow_866_4370" result="shape"/>
</filter>
</defs>
</svg>
