<svg width="65" height="55" viewBox="0 0 65 55" fill="none" xmlns="http://www.w3.org/2000/svg">
<path d="M54.1667 0C57.0398 0 59.7953 0.965771 61.827 2.68485C63.8586 4.40394 65 6.73552 65 9.16667V45.8333C65 48.2645 63.8586 50.5961 61.827 52.3151C59.7953 54.0342 57.0398 55 54.1667 55H10.8333C7.96016 55 5.20465 54.0342 3.17301 52.3151C1.14137 50.5961 0 48.2645 0 45.8333V9.16667C0 6.73552 1.14137 4.40394 3.17301 2.68485C5.20465 0.965771 7.96016 0 10.8333 0H54.1667ZM54.1667 6.11111H10.8333C9.87561 6.11111 8.95711 6.43304 8.27989 7.00606C7.60268 7.57909 7.22222 8.35628 7.22222 9.16667V45.8333C7.22222 46.6437 7.60268 47.4209 8.27989 47.9939C8.95711 48.567 9.87561 48.8889 10.8333 48.8889H54.1667C55.1244 48.8889 56.0429 48.567 56.7201 47.9939C57.3973 47.4209 57.7778 46.6437 57.7778 45.8333V9.16667C57.7778 8.35628 57.3973 7.57909 56.7201 7.00606C56.0429 6.43304 55.1244 6.11111 54.1667 6.11111ZM18.0556 21.3889C18.94 21.389 19.7937 21.6638 20.4547 22.1611C21.1156 22.6584 21.5379 23.3437 21.6414 24.0869L21.6667 24.4444V39.7222C21.6656 40.501 21.3132 41.2501 20.6814 41.8164C20.0495 42.3827 19.186 42.7235 18.2672 42.7691C17.3484 42.8148 16.4436 42.5618 15.7378 42.062C15.032 41.5621 14.5784 40.8531 14.4697 40.0797L14.4444 39.7222V24.4444C14.4444 23.6341 14.8249 22.8569 15.5021 22.2838C16.1793 21.7108 17.0978 21.3889 18.0556 21.3889ZM28.8889 18.3333C29.7346 18.3332 30.5535 18.5843 31.2029 19.0427C31.8522 19.5012 32.2908 20.1379 32.4422 20.8419C33.1689 20.4854 33.9201 20.166 34.6919 19.8856C37.1006 19.0147 40.7081 18.535 43.9653 19.3997C45.6733 19.8581 47.3886 20.7136 48.6597 22.1711C49.7972 23.4697 50.4111 25.0494 50.5339 26.8247L50.5556 27.5V39.7222C50.5545 40.501 50.2021 41.2501 49.5703 41.8164C48.9384 42.3827 48.0749 42.7235 47.1561 42.7691C46.2373 42.8148 45.3325 42.5618 44.6267 42.062C43.9209 41.5621 43.4673 40.8531 43.3586 40.0797L43.3333 39.7222V27.5C43.3333 26.4917 43.0444 26.0211 42.8567 25.8042C42.5871 25.5205 42.2157 25.3188 41.7986 25.2297C40.5419 24.8936 38.7328 25.0708 37.5303 25.5047C35.7247 26.1586 34.0708 27.1853 32.9442 28.1356L32.5 28.5389V39.7222C32.499 40.501 32.1465 41.2501 31.5147 41.8164C30.8829 42.3827 30.0193 42.7235 29.1005 42.7691C28.1817 42.8148 27.277 42.5618 26.5712 42.062C25.8654 41.5621 25.4118 40.8531 25.3031 40.0797L25.2778 39.7222V21.3889C25.2778 20.5785 25.6582 19.8013 26.3354 19.2283C27.0127 18.6553 27.9312 18.3333 28.8889 18.3333ZM18.0556 12.2222C19.0133 12.2222 19.9318 12.5441 20.609 13.1172C21.2862 13.6902 21.6667 14.4674 21.6667 15.2778C21.6667 16.0882 21.2862 16.8654 20.609 17.4384C19.9318 18.0114 19.0133 18.3333 18.0556 18.3333C17.0978 18.3333 16.1793 18.0114 15.5021 17.4384C14.8249 16.8654 14.4444 16.0882 14.4444 15.2778C14.4444 14.4674 14.8249 13.6902 15.5021 13.1172C16.1793 12.5441 17.0978 12.2222 18.0556 12.2222Z" fill="white"/>
</svg>
