<svg width="65" height="55" viewBox="0 0 65 55" fill="none" xmlns="http://www.w3.org/2000/svg">
<path d="M65 12.5125C64.9635 11.3261 64.855 10.142 64.675 8.965C64.4323 7.93409 64.0279 6.93525 63.4725 5.995C62.8916 4.97504 62.1115 4.04532 61.165 3.245C60.2098 2.45356 59.113 1.79462 57.915 1.2925C56.8023 0.831722 55.6219 0.498777 54.405 0.3025C53.0272 0.127873 51.6378 0.0268403 50.245 0H14.7875C13.3854 0.0309001 11.986 0.122687 10.595 0.275C9.37665 0.480338 8.1962 0.822534 7.085 1.2925C5.87959 1.78403 4.78084 2.44412 3.835 3.245C2.89966 4.05325 2.12092 4.98133 1.5275 5.995C0.982944 6.9365 0.589464 7.93533 0.3575 8.965C0.151123 10.1308 0.0317203 11.3065 0 12.485V42.4875C0.0365183 43.6739 0.144994 44.858 0.325 46.035C0.567672 47.0659 0.972086 48.0648 1.5275 49.005C2.10839 50.025 2.88851 50.9547 3.835 51.755C4.79021 52.5464 5.88703 53.2054 7.085 53.7075C8.19768 54.1683 9.37812 54.5012 10.595 54.6975C11.9728 54.8721 13.3622 54.9732 14.755 55H50.2125C51.6146 54.9691 53.014 54.8773 54.405 54.725C55.6233 54.5197 56.8038 54.1775 57.915 53.7075C59.1204 53.216 60.2192 52.5559 61.165 51.755C62.1003 50.9467 62.8791 50.0187 63.4725 49.005C64.0171 48.0635 64.4105 47.0647 64.6425 46.035C64.8489 44.8692 64.9683 43.6935 65 42.515V13.97V12.5125ZM33.2475 46.75C29.3444 46.7337 25.5097 45.8823 22.1 44.275L9.75 47.025L13 36.795C10.9041 33.8152 9.78245 30.4175 9.75 26.95C9.76294 23.053 11.1384 19.2465 13.7032 16.0097C16.2679 12.7729 19.9073 10.2507 24.1629 8.76072C28.4184 7.27073 33.0999 6.87959 37.6177 7.63658C42.1355 8.39357 46.2875 10.2648 49.5509 13.0147C52.8143 15.7645 55.043 19.2699 55.9564 23.0895C56.8698 26.9091 56.427 30.8719 54.6838 34.479C52.9406 38.086 49.975 41.1759 46.1604 43.3596C42.3458 45.5432 37.8529 46.7228 33.2475 46.75ZM33.2475 10.6425C29.8019 10.6759 26.4282 11.4812 23.4701 12.9765C20.5119 14.4719 18.0748 16.6038 16.407 19.1552C14.7391 21.7066 13.9001 24.5864 13.9753 27.5014C14.0505 30.4165 15.0372 33.2626 16.835 35.75L17.29 36.3825L15.34 42.405L22.75 40.7L23.465 41.0575C26.4211 42.5308 29.7843 43.3182 33.215 43.34C38.3867 43.34 43.3466 41.6016 47.0036 38.5073C50.6605 35.4129 52.715 31.2161 52.715 26.84C52.715 22.4639 50.6605 18.2671 47.0036 15.1727C43.3466 12.0784 38.3867 10.34 33.215 10.34L33.2475 10.6425ZM44.6225 34.0725C44.1968 34.6733 43.6269 35.1918 42.9495 35.5944C42.272 35.9971 41.5023 36.2749 40.69 36.41C39.4763 36.5977 38.2267 36.5316 37.05 36.2175C35.9429 35.9246 34.8576 35.5757 33.8 35.1725C29.7822 33.4666 26.3557 30.9083 23.855 27.7475C22.4961 26.2831 21.6716 24.515 21.4825 22.66C21.4631 21.8894 21.6354 21.124 21.9881 20.4134C22.3409 19.7028 22.8662 19.0628 23.53 18.535C23.7255 18.3474 23.9654 18.1966 24.2341 18.0924C24.5028 17.9882 24.7944 17.9329 25.09 17.93H26C26.3575 17.93 26.845 17.93 27.3 18.7825C27.755 19.635 28.9575 22.1925 29.12 22.44C29.1999 22.5719 29.2415 22.718 29.2415 22.8662C29.2415 23.0145 29.1999 23.1606 29.12 23.2925C28.9763 23.5913 28.779 23.8696 28.535 24.1175C28.2425 24.42 27.9175 24.7775 27.6575 24.9975C27.3975 25.2175 27.0725 25.4925 27.3975 25.9875C28.2818 27.2503 29.3763 28.3987 30.6475 29.3975C32.0318 30.4325 33.6144 31.2602 35.3275 31.845C35.9125 32.0925 36.27 32.065 36.595 31.845C36.92 31.625 38.0575 30.415 38.4475 29.92C38.8375 29.425 39.2275 29.5075 39.7475 29.6725C40.2675 29.8375 43.16 31.02 43.745 31.2675C44.33 31.515 44.6875 31.625 44.85 31.845C44.991 32.5647 44.9126 33.303 44.6225 33.99V34.0725Z" fill="white"/>
</svg>
